<?xml version="1.0" encoding="UTF-8" standalone="no"?>
<!DOCTYPE svg PUBLIC "-//W3C//DTD SVG 1.1//EN" "http://www.w3.org/Graphics/SVG/1.1/DTD/svg11.dtd">
<svg width="100%" height="100%" viewBox="0 0 167 167" version="1.1" xmlns="http://www.w3.org/2000/svg" xmlns:xlink="http://www.w3.org/1999/xlink" xml:space="preserve" xmlns:serif="http://www.serif.com/" style="fill-rule:evenodd;clip-rule:evenodd;stroke-linejoin:round;stroke-miterlimit:2;">
    <g transform="matrix(1,0,0,1,-299.511,-218.32)">
        <g>
            <g transform="matrix(0.95474,0,0,0.945324,17.2166,16.0532)">
                <path d="M329.166,243.879C343.287,230.58 362.306,222.429 383.214,222.429C426.72,222.429 462.061,257.729 462.061,301.234C462.061,313.535 459.236,325.181 454.198,335.558L461.722,339.284C467.307,327.78 470.44,314.87 470.44,301.234C470.44,253.081 431.367,213.966 383.214,213.966C360.095,213.966 339.065,222.985 323.452,237.69L329.166,243.879Z"/>
            </g>
            <g transform="matrix(0.95463,0,0,0.96369,16.9521,10.6483)">
                <path d="M426.945,366.868C414.429,375.238 399.387,380.12 383.214,380.12C339.687,380.12 304.368,344.761 304.368,301.234C304.368,292.928 305.653,284.921 308.036,277.399L300.041,274.913C297.409,283.219 295.988,292.062 295.988,301.234C295.988,349.365 335.084,388.421 383.214,388.421C401.121,388.421 417.776,383.016 431.633,373.749L426.945,366.868Z"/>
            </g>
            <g transform="matrix(1.60125,0,0,1.58543,-238.401,-165.7)">
                <circle cx="387.679" cy="294.942" r="40.218"/>
            </g>
            <g transform="matrix(1,0,0,1,-1.3019,1.17294)">
                <circle cx="447.086" cy="345.843" r="5.53"/>
            </g>
            <g transform="matrix(1,0,0,1,-133.421,-82.7449)">
                <circle cx="447.086" cy="345.843" r="5.53"/>
            </g>
        </g>
    </g>
</svg>
